<svg width="120" height="96" viewBox="0 0 120 96" fill="none" xmlns="http://www.w3.org/2000/svg">
	<path
		d="M19.2988 85.433C19.2238 86.905 18.9614 88.1818 18.5115 89.2632C18.0617 90.3297 17.4844 91.246 16.7796 92.012C16.0898 92.763 15.3026 93.3789 14.4179 93.8596C13.5481 94.3252 12.6634 94.6932 11.7637 94.9636C10.879 95.2339 10.0018 95.4142 9.13206 95.5043C8.27734 95.6095 7.52008 95.662 6.86029 95.662C5.5857 95.662 4.38609 95.6245 3.26145 95.5494C2.15181 95.4743 1.06466 95.3466 0 95.1664C0.0899711 94.2201 0.164947 93.1836 0.224928 92.0571C0.284908 90.9155 0.337391 89.7589 0.382377 88.5873C0.427363 87.4007 0.457353 86.2366 0.472348 85.095C0.487343 83.9534 0.502338 82.902 0.517334 81.9407C0.532329 80.9643 0.539826 80.1232 0.539826 79.4172C0.539826 78.6962 0.539826 78.178 0.539826 77.8626C0.524831 75.7146 0.494841 73.6418 0.449855 71.644C0.43486 70.7878 0.412367 69.9166 0.382377 69.0304C0.367382 68.1292 0.344889 67.258 0.314899 66.4168C0.299904 65.5607 0.277411 64.7571 0.24742 64.006C0.21743 63.24 0.179942 62.564 0.134957 61.9782C0.554822 61.9182 1.01217 61.8731 1.50702 61.8431C2.01685 61.813 2.51919 61.7905 3.01403 61.7755C3.52387 61.7454 4.01871 61.7304 4.49855 61.7304C4.99339 61.7154 5.44325 61.7079 5.84812 61.7079C7.66253 61.7079 9.37198 61.8431 10.9765 62.1134C12.5959 62.3838 14.0055 62.8494 15.2051 63.5103C16.4197 64.1562 17.3719 65.0199 18.0617 66.1014C18.7665 67.1679 19.1188 68.5047 19.1188 70.1119C19.0439 71.0883 18.8039 72.0045 18.3991 72.8607C18.2191 73.2362 17.9942 73.6192 17.7243 74.0098C17.4694 74.3853 17.147 74.7458 16.7571 75.0913C16.3672 75.4367 15.9099 75.7597 15.385 76.0601C14.8602 76.3605 14.2604 76.6083 13.5856 76.8036C14.5603 77.059 15.3776 77.442 16.0373 77.9527C16.6971 78.4634 17.237 79.0342 17.6568 79.665C18.0917 80.2809 18.4141 80.9193 18.624 81.5802C18.8489 82.2411 19.0064 82.8494 19.0964 83.4052C19.2013 83.961 19.2613 84.4266 19.2763 84.8021C19.2913 85.1776 19.2988 85.3879 19.2988 85.433ZM12.9783 85.6583C12.9333 84.3965 12.7234 83.2625 12.3485 82.2561C12.1836 81.8355 11.9736 81.4225 11.7187 81.0169C11.4788 80.5963 11.1789 80.2283 10.819 79.9129C10.4591 79.5824 10.0318 79.3196 9.53693 79.1243C9.04209 78.929 8.47227 78.8314 7.82748 78.8314C7.66253 78.8314 7.49009 78.8389 7.31015 78.8539C7.13021 78.869 6.93527 78.8915 6.72534 78.9215L6.54539 91.6515C6.99525 91.7416 7.43761 91.7867 7.87247 91.7867C8.50226 91.7867 9.04959 91.7041 9.51444 91.5389C9.99428 91.3586 10.4141 91.1258 10.774 90.8404C11.1339 90.54 11.4338 90.2095 11.6737 89.849C11.9287 89.4885 12.1386 89.113 12.3035 88.7225C12.6934 87.8213 12.9183 86.7999 12.9783 85.6583ZM12.8884 69.9767C12.8284 69.1356 12.6184 68.3845 12.2586 67.7236C12.1086 67.4382 11.9137 67.1604 11.6737 66.89C11.4488 66.6196 11.1639 66.3793 10.819 66.169C10.4891 65.9587 10.0918 65.786 9.6269 65.6508C9.17705 65.5156 8.65222 65.448 8.05241 65.448C7.57256 65.448 7.04024 65.4931 6.45542 65.5832L6.72534 75.1363H7.22018C8.14988 75.1363 8.93712 75.0162 9.58192 74.7758C10.2267 74.5205 10.759 74.2126 11.1789 73.8521C11.5988 73.4765 11.9212 73.071 12.1461 72.6354C12.386 72.1998 12.5585 71.7942 12.6634 71.4187C12.7684 71.0282 12.8284 70.7052 12.8434 70.4499C12.8734 70.1795 12.8884 70.0218 12.8884 69.9767Z"
		fill="#39434F" />
	<path
		d="M43.8218 79.5299C43.8218 80.8066 43.7768 82.0984 43.6868 83.4052C43.6119 84.712 43.4544 85.9737 43.2145 87.1904C42.9896 88.4071 42.6597 89.5561 42.2248 90.6376C41.805 91.7041 41.2576 92.6354 40.5828 93.4315C39.9081 94.2276 39.0908 94.8509 38.1311 95.3015C37.1714 95.7672 36.0318 96 34.7122 96C33.4526 96 32.358 95.7972 31.4283 95.3917C30.4986 95.0011 29.7038 94.4679 29.0441 93.792C28.3843 93.101 27.8444 92.2899 27.4246 91.3586C27.0197 90.4123 26.6973 89.4059 26.4574 88.3395C26.2175 87.258 26.0525 86.1314 25.9626 84.9598C25.8726 83.7882 25.8276 82.6241 25.8276 81.4675C25.8276 81.1671 25.8276 80.9043 25.8276 80.6789C25.8426 80.4536 25.8576 80.2133 25.8726 79.958C25.8876 79.6876 25.9026 79.3721 25.9176 79.0116C25.9476 78.6361 25.9775 78.163 26.0075 77.5922C26.0375 77.0064 26.0675 76.2929 26.0975 75.4518C26.1425 74.5956 26.1875 73.5516 26.2325 72.32C26.2924 71.0883 26.3449 69.6388 26.3899 67.9715C26.4499 66.2892 26.5174 64.3365 26.5923 62.1134L33.3177 62.3613C33.0928 64.6744 32.8828 66.6647 32.6879 68.332C32.4929 69.9842 32.3205 71.4412 32.1706 72.703C32.0206 73.9647 31.8856 75.0762 31.7657 76.0376C31.6457 76.9989 31.5483 77.9302 31.4733 78.8314C31.3983 79.7326 31.3383 80.6564 31.2933 81.6027C31.2633 82.549 31.2483 83.638 31.2483 84.8697C31.2483 87.1679 31.4958 88.9103 31.9906 90.0969C32.4855 91.2835 33.3177 91.8768 34.4873 91.8768C35.7619 91.8768 36.7366 91.1183 37.4114 89.6012C38.1011 88.0691 38.446 85.6658 38.446 82.3913C38.446 78.8164 38.3186 75.3691 38.0637 72.0496C37.8087 68.715 37.4713 65.4255 37.0515 62.181L43.4169 61.9782C43.3869 62.564 43.3719 63.1423 43.3719 63.7131C43.3719 64.2689 43.3719 64.8322 43.3719 65.4029C43.3719 66.9801 43.3944 68.5122 43.4394 69.9993C43.4844 71.4713 43.5369 72.8307 43.5969 74.0774C43.6569 75.3091 43.7093 76.3981 43.7543 77.3444C43.7993 78.2907 43.8218 79.0192 43.8218 79.5299Z"
		fill="#39434F" />
	<path
		d="M70.3242 78.8765C70.3242 81.3248 70.0918 83.4427 69.6269 85.2302C69.177 87.0026 68.5922 88.5197 67.8725 89.7814C67.1527 91.0282 66.343 92.0421 65.4433 92.8231C64.5435 93.6042 63.6438 94.205 62.7441 94.6256C61.8444 95.0612 60.9972 95.3541 60.2024 95.5043C59.4077 95.6695 58.7554 95.7522 58.2456 95.7522C58.1256 95.7522 57.8557 95.7446 57.4358 95.7296C57.031 95.7146 56.5286 95.6771 55.9288 95.617C55.329 95.5719 54.6467 95.4968 53.882 95.3917C53.1322 95.2865 52.345 95.1363 51.5202 94.941C51.5352 91.967 51.5502 89.3909 51.5652 87.2129C51.5952 85.0199 51.6177 83.1348 51.6327 81.5576C51.6477 79.9805 51.6627 78.6587 51.6777 77.5922C51.6927 76.5257 51.7002 75.6095 51.7002 74.8434C51.7152 74.0774 51.7227 73.424 51.7227 72.8832C51.7377 72.3275 51.7452 71.7867 51.7452 71.261C51.7452 70.4349 51.7377 69.5862 51.7227 68.715C51.7077 67.8288 51.6777 66.9726 51.6327 66.1465C51.5877 65.3203 51.5277 64.5468 51.4528 63.8258C51.3778 63.1048 51.2803 62.4889 51.1603 61.9782C52.33 61.9031 53.3946 61.8581 54.3543 61.8431C55.329 61.813 56.1687 61.798 56.8735 61.798C58.6429 61.798 60.2024 62.0158 61.552 62.4514C62.9016 62.872 64.0712 63.4653 65.0609 64.2313C66.0656 64.9824 66.8978 65.8911 67.5576 66.9576C68.2324 68.009 68.7722 69.1656 69.177 70.4274C69.5969 71.6891 69.8893 73.0409 70.0543 74.4829C70.2342 75.9099 70.3242 77.3744 70.3242 78.8765ZM64.4761 78.178C64.4761 75.5193 64.3486 73.3564 64.0937 71.6891C63.8538 70.0068 63.4564 68.7 62.9016 67.7687C62.3617 66.8374 61.6495 66.2065 60.7648 65.8761C59.895 65.5306 58.8379 65.3579 57.5933 65.3579H56.9185L57.1884 91.8318C57.4883 91.9519 57.7657 92.0345 58.0206 92.0796C58.2906 92.1096 58.553 92.1247 58.8079 92.1247C59.8126 92.1247 60.6673 91.8919 61.3721 91.4262C62.0918 90.9456 62.6766 90.1645 63.1265 89.083C63.5913 87.9865 63.9287 86.552 64.1387 84.7796C64.3636 82.9921 64.4761 80.7916 64.4761 78.178Z"
		fill="#39434F" />
	<path
		d="M96.2867 78.8765C96.2867 81.3248 96.0543 83.4427 95.5895 85.2302C95.1396 87.0026 94.5548 88.5197 93.835 89.7814C93.1152 91.0282 92.3055 92.0421 91.4058 92.8231C90.5061 93.6042 89.6064 94.205 88.7067 94.6256C87.807 95.0612 86.9597 95.3541 86.165 95.5043C85.3702 95.6695 84.7179 95.7522 84.2081 95.7522C84.0882 95.7522 83.8182 95.7446 83.3984 95.7296C82.9935 95.7146 82.4912 95.6771 81.8914 95.617C81.2915 95.5719 80.6093 95.4968 79.8445 95.3917C79.0948 95.2865 78.3075 95.1363 77.4828 94.941C77.4978 91.967 77.5128 89.3909 77.5278 87.2129C77.5578 85.0199 77.5802 83.1348 77.5952 81.5576C77.6102 79.9805 77.6252 78.6587 77.6402 77.5922C77.6552 76.5257 77.6627 75.6095 77.6627 74.8434C77.6777 74.0774 77.6852 73.424 77.6852 72.8832C77.7002 72.3275 77.7077 71.7867 77.7077 71.261C77.7077 70.4349 77.7002 69.5862 77.6852 68.715C77.6702 67.8288 77.6402 66.9726 77.5952 66.1465C77.5503 65.3203 77.4903 64.5468 77.4153 63.8258C77.3403 63.1048 77.2429 62.4889 77.1229 61.9782C78.2925 61.9031 79.3572 61.8581 80.3169 61.8431C81.2915 61.813 82.1313 61.798 82.8361 61.798C84.6055 61.798 86.165 62.0158 87.5145 62.4514C88.8641 62.872 90.0337 63.4653 91.0234 64.2313C92.0281 64.9824 92.8603 65.8911 93.5201 66.9576C94.1949 68.009 94.7347 69.1656 95.1396 70.4274C95.5595 71.6891 95.8519 73.0409 96.0168 74.4829C96.1968 75.9099 96.2867 77.3744 96.2867 78.8765ZM90.4386 78.178C90.4386 75.5193 90.3111 73.3564 90.0562 71.6891C89.8163 70.0068 89.4189 68.7 88.8641 67.7687C88.3243 66.8374 87.612 66.2065 86.7273 65.8761C85.8576 65.5306 84.8004 65.3579 83.5558 65.3579H82.881L83.151 91.8318C83.4509 91.9519 83.7283 92.0345 83.9832 92.0796C84.2531 92.1096 84.5155 92.1247 84.7704 92.1247C85.7751 92.1247 86.6298 91.8919 87.3346 91.4262C88.0544 90.9456 88.6392 90.1645 89.089 89.083C89.5539 87.9865 89.8913 86.552 90.1012 84.7796C90.3261 82.9921 90.4386 80.7916 90.4386 78.178Z"
		fill="#39434F" />
	<path
		d="M120 62.2261C119.34 63.9685 118.718 65.7109 118.133 67.4533C117.548 69.1957 116.986 70.9456 116.446 72.703C115.921 74.4604 115.404 76.2253 114.894 77.9978C114.384 79.7702 113.874 81.5426 113.365 83.3151C113.47 85.3278 113.582 87.3256 113.702 89.3083C113.822 91.276 113.987 93.2587 114.197 95.2565L107.337 95.5268C107.532 93.1836 107.674 90.8629 107.764 88.5648C107.869 86.2666 107.944 83.9459 107.989 81.6027C106.819 78.2531 105.59 74.9636 104.3 71.7341C103.01 68.4897 101.646 65.2527 100.206 62.0233C101.316 61.9933 102.493 61.9482 103.738 61.8881C104.982 61.813 106.137 61.6928 107.202 61.5276C107.472 62.9095 107.726 64.2914 107.966 65.6733C108.221 67.0552 108.476 68.4446 108.731 69.8415C109.001 71.2234 109.286 72.5978 109.586 73.9647C109.886 75.3316 110.231 76.6759 110.621 77.9978C111.265 75.294 111.843 72.5753 112.352 69.8415C112.862 67.1078 113.312 64.4116 113.702 61.7529C115.771 62.0233 117.871 62.181 120 62.2261Z"
		fill="#39434F" />
	<path
		d="M29.4565 27.9277C29.4415 29.8954 29.0667 31.6378 28.3319 33.1549C27.6121 34.657 26.6674 35.9187 25.4978 36.9401C24.3432 37.9615 23.0536 38.7351 21.6291 39.2608C20.2045 39.7865 18.7875 40.0494 17.3779 40.0494H16.9281C16.9281 40.6802 16.9281 41.4313 16.9281 42.3025C16.9431 43.1587 16.9656 44.0974 16.9955 45.1188C17.0255 46.1252 17.063 47.1842 17.108 48.2957C17.168 49.3922 17.243 50.4887 17.3329 51.5852C16.4482 51.4951 15.6385 51.435 14.9037 51.405C14.169 51.3749 13.5242 51.3599 12.9693 51.3599C12.6694 51.3599 12.407 51.3599 12.1821 51.3599C11.9572 51.3749 11.7697 51.3825 11.6198 51.3825C11.4398 51.3975 11.2899 51.405 11.1699 51.405C11.2449 50.2334 11.3124 49.0618 11.3724 47.8902C11.4323 46.7035 11.4848 45.5469 11.5298 44.4204C11.5748 43.2788 11.6048 42.1823 11.6198 41.1309C11.6498 40.0794 11.6798 39.0881 11.7097 38.1568C11.7547 35.9938 11.7847 33.921 11.7997 31.9382C11.7997 30.0306 11.7847 28.2056 11.7547 26.4632C11.7397 25.7272 11.7247 24.9687 11.7097 24.1876C11.6948 23.4065 11.6723 22.648 11.6423 21.912C11.6273 21.1759 11.6048 20.4925 11.5748 19.8616C11.5598 19.2157 11.5298 18.66 11.4848 18.1943C12.6394 17.9841 13.7641 17.8564 14.8587 17.8113C15.9684 17.7512 16.8831 17.7212 17.6029 17.7212C18.1577 17.7212 18.84 17.7437 19.6497 17.7888C20.4594 17.8338 21.2992 17.9615 22.1689 18.1718C23.0536 18.3671 23.9308 18.6825 24.8005 19.1181C25.6703 19.5387 26.45 20.1245 27.1398 20.8755C27.8296 21.6266 28.3844 22.5804 28.8042 23.737C29.2391 24.8785 29.4565 26.2754 29.4565 27.9277ZM23.6534 28.108C23.6534 26.9664 23.5259 25.9901 23.271 25.1789C23.0161 24.3528 22.6262 23.6769 22.1014 23.1512C21.5916 22.6254 20.9318 22.2274 20.122 21.957C19.3273 21.6866 18.3826 21.5214 17.288 21.4613C17.228 22.7831 17.1755 24.1726 17.1305 25.6296C17.1005 27.0866 17.0705 28.506 17.0405 29.8879C17.0105 31.2548 16.988 32.5315 16.9731 33.7182C16.9581 34.8898 16.9431 35.8511 16.9281 36.6021C18.0527 36.5421 19.0349 36.2942 19.8746 35.8586C20.7144 35.423 21.4116 34.8372 21.9664 34.1012C22.5363 33.3652 22.9561 32.494 23.226 31.4876C23.511 30.4662 23.6534 29.3397 23.6534 28.108Z"
		fill="#39434F" />
	<path
		d="M108.133 18.8497C108.268 20.6371 108.388 22.5147 108.493 24.4824C108.538 25.3236 108.583 26.2248 108.628 27.1861C108.673 28.1474 108.71 29.1538 108.74 30.2053C108.77 31.2417 108.793 32.3082 108.808 33.4047C108.838 34.4862 108.853 35.5676 108.853 36.6491C108.853 38.767 108.718 40.7798 108.448 42.6874C108.178 44.5951 107.736 46.2774 107.121 47.7344C106.506 49.1914 105.696 50.348 104.692 51.2041C103.687 52.0603 102.45 52.4884 100.98 52.4884C100.95 52.4884 100.815 52.4809 100.575 52.4659C100.351 52.4509 100.058 52.3983 99.6983 52.3082C99.3384 52.218 98.9335 52.0753 98.4837 51.8801C98.0488 51.6848 97.6064 51.4069 97.1566 51.0464C96.7067 50.6859 96.2794 50.2278 95.8745 49.672C95.4696 49.1012 95.1322 48.4103 94.8623 47.5992C94.5474 48.3652 94.1725 49.0036 93.7377 49.5143C93.3028 50.025 92.853 50.4531 92.3881 50.7986C91.9233 51.129 91.4509 51.3844 90.9711 51.5646C90.5062 51.7449 90.0864 51.8726 89.7115 51.9477C89.3366 52.0228 89.0217 52.0678 88.7668 52.0828C88.5119 52.0979 88.3619 52.1054 88.3169 52.1054C87.4172 52.1054 86.645 51.8951 86.0002 51.4745C85.3704 51.069 84.8306 50.5057 84.3807 49.7847C83.9458 49.0487 83.6009 48.1925 83.346 47.2162C83.0911 46.2248 82.8887 45.1583 82.7387 44.0168C82.6038 42.8602 82.5138 41.651 82.4688 40.3893C82.4388 39.1275 82.4238 37.8658 82.4238 36.6041C82.4238 35.4625 82.4313 34.3284 82.4463 33.2019C82.4613 32.0603 82.4763 30.9563 82.4913 29.8898C82.5213 28.8234 82.5513 27.802 82.5813 26.8256C82.6263 25.8343 82.6638 24.918 82.6937 24.0769C82.7687 22.0941 82.8587 20.2241 82.9637 18.4666L89.554 18.6469C89.2691 20.3893 89.0142 22.2218 88.7893 24.1444C88.6993 24.9706 88.6093 25.8568 88.5194 26.8031C88.4294 27.7494 88.3469 28.7408 88.2719 29.7772C88.212 30.7986 88.1595 31.8575 88.1145 32.9541C88.0695 34.0355 88.047 35.117 88.047 36.1985C88.047 37.0246 88.047 37.8583 88.047 38.6995C88.062 39.5406 88.0845 40.3592 88.1145 41.1553C88.1595 41.9364 88.2195 42.6724 88.2944 43.3634C88.3694 44.0393 88.4744 44.6401 88.6093 45.1658C88.7593 45.6765 88.9392 46.0821 89.1492 46.3825C89.3741 46.6679 89.6515 46.8106 89.9814 46.8106C90.2963 46.8106 90.5887 46.6153 90.8586 46.2248C91.1435 45.8343 91.3909 45.3236 91.6009 44.6927C91.8258 44.0468 92.0207 43.3258 92.1857 42.5297C92.3656 41.7186 92.5081 40.9075 92.613 40.0964C92.733 39.2702 92.823 38.4741 92.883 37.7081C92.9429 36.942 92.9729 36.2811 92.9729 35.7254C92.9729 35.5451 92.9804 35.3123 92.9954 35.0269C92.9954 34.7716 92.9954 34.4486 92.9954 34.0581C93.0104 33.6525 93.0179 33.1643 93.0179 32.5936C93.0179 31.452 93.0029 29.9124 92.9729 27.9747C92.9429 26.022 92.898 23.5812 92.838 20.6521L98.5511 20.8775C98.4162 23.2958 98.3037 25.3536 98.2137 27.0509C98.1238 28.7483 98.0488 30.1677 97.9888 31.3093C97.9288 32.4358 97.8839 33.3446 97.8539 34.0355C97.8389 34.7115 97.8239 35.2522 97.8089 35.6578C97.8089 36.0483 97.8089 36.3487 97.8089 36.559C97.8089 36.7543 97.8089 36.942 97.8089 37.1223C97.8089 37.7682 97.8314 38.4666 97.8764 39.2177C97.9363 39.9537 98.0188 40.6897 98.1238 41.4257C98.2437 42.1617 98.3862 42.8752 98.5511 43.5661C98.7311 44.2421 98.926 44.8429 99.136 45.3686C99.3609 45.8793 99.6083 46.2924 99.8782 46.6078C100.163 46.9233 100.471 47.081 100.8 47.081C101.31 47.081 101.715 46.7956 102.015 46.2248C102.33 45.654 102.562 44.8804 102.712 43.9041C102.877 42.9127 102.982 41.7712 103.027 40.4794C103.072 39.1726 103.095 37.7907 103.095 36.3337C103.095 34.0656 103.042 31.9702 102.937 30.0476C102.847 28.1249 102.727 26.4201 102.577 24.933C102.427 23.431 102.27 22.1542 102.105 21.1028C101.955 20.0363 101.828 19.2327 101.723 18.692L108.133 18.8497Z"
		fill="#39434F" />
	<path
		d="M64.2022 8.1806C64.6853 5.06882 63.3556 2.31435 61.2221 2.02488C61.1009 2.00807 60.9787 1.99976 60.8564 2.00001C58.8583 2.00001 56.9552 4.19363 56.4991 7.12676C56.016 10.2385 57.3457 12.993 59.4792 13.2825C59.6011 13.2983 59.723 13.3074 59.8449 13.3074C61.8429 13.3074 63.7506 11.1047 64.2022 8.1806Z"
		fill="#1B85F3" />
	<path
		d="M48.8072 13.2825C48.6857 13.2983 48.5641 13.3073 48.4403 13.3073C46.4427 13.3065 44.5379 11.1041 44.0775 8.1806C43.5966 5.06882 44.9263 2.31435 47.0575 2.02488C47.1795 2.00905 47.3014 2 47.4255 2C49.4235 2 51.329 4.19363 51.7873 7.12675C52.2682 10.2385 50.9384 12.993 48.8072 13.2825Z"
		fill="#1B85F3" />
	<path
		d="M71.7111 11.0459C72.026 11.0454 72.3377 11.1085 72.6277 11.2313C74.4632 12.0274 75.0141 15.1143 73.8491 18.1333C72.8648 20.6752 70.9774 22.3532 69.309 22.3532C68.9952 22.3532 68.6837 22.2922 68.3924 22.1678C66.5457 21.3717 66.0061 18.2848 67.1778 15.2658C68.1554 12.742 70.0179 11.073 71.6773 11.0459H71.7111Z"
		fill="#1B85F3" />
	<path
		d="M41.1064 15.2658C42.2759 18.2803 41.7386 21.3717 39.8963 22.1678C39.6028 22.2922 39.2935 22.3532 38.9775 22.3532C37.3113 22.3532 35.4262 20.6752 34.4419 18.1333C33.2724 15.1188 33.8097 12.0274 35.652 11.2313C35.9455 11.1069 36.2548 11.0459 36.5708 11.0459C38.237 11.0459 40.1221 12.7239 41.1064 15.2658Z"
		fill="#1B85F3" />
	<path
		d="M54.2129 19.7894C58.6 19.7894 59.7882 21.5426 63.6212 28.4861C65.2313 31.3919 67.7593 33.1938 70.1127 34.8712C72.5574 36.6137 74.8137 38.2219 75.657 40.7937C75.995 41.7156 76.1657 43.1488 76.1657 44.1402C76.1657 48.2346 73.4234 51.0976 69.8935 51.0976C64.7945 51.0976 62.1115 47.7779 59.7913 44.907C58.0238 42.7201 56.4669 40.7937 54.2129 40.7937C51.9317 40.7937 50.2932 42.7668 48.4503 44.9861C46.0816 47.8384 43.3751 51.0976 38.5322 51.0976C35.0023 51.0976 32.26 48.2311 32.26 44.1402C32.253 43.1488 32.4203 41.7156 32.7583 40.7937C33.5951 38.2504 35.705 36.8667 38.0109 35.3545C40.2656 33.8758 42.7078 32.2742 44.3306 29.3453C48.1636 22.4158 49.8258 19.7894 54.2129 19.7894Z"
		fill="#1B85F3" />
	<path
		d="M64.2022 8.1806C64.6853 5.06882 63.3556 2.31435 61.2221 2.02488C61.1009 2.00807 60.9787 1.99976 60.8564 2.00001C58.8583 2.00001 56.9552 4.19363 56.4991 7.12676C56.016 10.2385 57.3457 12.993 59.4792 13.2825C59.6011 13.2983 59.723 13.3074 59.8449 13.3074C61.8429 13.3074 63.7506 11.1047 64.2022 8.1806Z"
		stroke="#1B85F3" stroke-width="3" stroke-linecap="round" stroke-linejoin="round" />
	<path
		d="M48.8072 13.2825C48.6857 13.2983 48.5641 13.3073 48.4403 13.3073C46.4427 13.3065 44.5379 11.1041 44.0775 8.1806C43.5966 5.06882 44.9263 2.31435 47.0575 2.02488C47.1795 2.00905 47.3014 2 47.4255 2C49.4235 2 51.329 4.19363 51.7873 7.12675C52.2682 10.2385 50.9384 12.993 48.8072 13.2825Z"
		stroke="#1B85F3" stroke-width="3" stroke-linecap="round" stroke-linejoin="round" />
	<path
		d="M71.7111 11.0459C72.026 11.0454 72.3377 11.1085 72.6277 11.2313C74.4632 12.0274 75.0141 15.1143 73.8491 18.1333C72.8648 20.6752 70.9774 22.3532 69.309 22.3532C68.9952 22.3532 68.6837 22.2922 68.3924 22.1678C66.5457 21.3717 66.0061 18.2848 67.1778 15.2658C68.1554 12.742 70.0179 11.073 71.6773 11.0459H71.7111Z"
		stroke="#1B85F3" stroke-width="3" stroke-linecap="round" stroke-linejoin="round" />
	<path
		d="M41.1064 15.2658C42.2759 18.2803 41.7386 21.3717 39.8963 22.1678C39.6028 22.2922 39.2935 22.3532 38.9775 22.3532C37.3113 22.3532 35.4262 20.6752 34.4419 18.1333C33.2724 15.1188 33.8097 12.0274 35.652 11.2313C35.9455 11.1069 36.2548 11.0459 36.5708 11.0459C38.237 11.0459 40.1221 12.7239 41.1064 15.2658Z"
		stroke="#1B85F3" stroke-width="3" stroke-linecap="round" stroke-linejoin="round" />
	<path
		d="M54.2129 19.7894C58.6 19.7894 59.7882 21.5426 63.6212 28.4861C65.2313 31.3919 67.7593 33.1938 70.1127 34.8712C72.5574 36.6137 74.8137 38.2219 75.657 40.7937C75.995 41.7156 76.1657 43.1488 76.1657 44.1402C76.1657 48.2346 73.4234 51.0976 69.8935 51.0976C64.7945 51.0976 62.1115 47.7779 59.7913 44.907C58.0238 42.7201 56.4669 40.7937 54.2129 40.7937C51.9317 40.7937 50.2932 42.7668 48.4503 44.9861C46.0816 47.8384 43.3751 51.0976 38.5322 51.0976C35.0023 51.0976 32.26 48.2311 32.26 44.1402C32.253 43.1488 32.4203 41.7156 32.7583 40.7937C33.5951 38.2504 35.705 36.8667 38.0109 35.3545C40.2656 33.8758 42.7078 32.2742 44.3306 29.3453C48.1636 22.4158 49.8258 19.7894 54.2129 19.7894Z"
		stroke="#1B85F3" stroke-width="3" stroke-linecap="round" stroke-linejoin="round" />
</svg>
