<svg width="174" height="38" viewBox="0 0 174 38" fill="none" xmlns="http://www.w3.org/2000/svg">
	<path
		d="M13.9921 19.4898C13.9813 20.9 13.7122 22.1488 13.1847 23.236C12.668 24.3125 11.9898 25.2168 11.1501 25.9488C10.3212 26.6808 9.39546 27.2352 8.3728 27.612C7.35013 27.9887 6.33284 28.1771 5.32094 28.1771H4.99799C4.99799 28.6292 4.99799 29.1675 4.99799 29.7919C5.00876 30.4055 5.0249 31.0783 5.04643 31.8103C5.06796 32.5315 5.09487 33.2905 5.12717 34.0871C5.17023 34.8729 5.22405 35.6587 5.28864 36.4446C4.65351 36.38 4.07221 36.3369 3.54473 36.3154C3.01724 36.2939 2.55435 36.2831 2.15605 36.2831C1.94075 36.2831 1.75236 36.2831 1.59089 36.2831C1.42942 36.2939 1.29485 36.2993 1.18721 36.2993C1.05803 36.31 0.950377 36.3154 0.864258 36.3154C0.918082 35.4757 0.966525 34.6361 1.00958 33.7964C1.05264 32.946 1.09032 32.1171 1.12262 31.3097C1.15491 30.4916 1.17644 29.7057 1.18721 28.9522C1.20874 28.1986 1.23027 27.4882 1.2518 26.8207C1.28409 25.2706 1.30562 23.785 1.31638 22.3641C1.31638 20.9969 1.30562 19.689 1.28409 18.4402C1.27333 17.9128 1.26256 17.3691 1.2518 16.8094C1.24103 16.2496 1.22488 15.7059 1.20335 15.1785C1.19259 14.651 1.17644 14.1612 1.15491 13.7091C1.14415 13.2462 1.12262 12.8479 1.09032 12.5141C1.91922 12.3634 2.72659 12.2719 3.51243 12.2396C4.30904 12.1966 4.9657 12.175 5.48241 12.175C5.88071 12.175 6.37052 12.1912 6.95183 12.2235C7.53313 12.2558 8.13597 12.3473 8.76033 12.498C9.39546 12.6379 10.0252 12.864 10.6496 13.1762C11.2739 13.4776 11.8337 13.8974 12.3289 14.4357C12.8241 14.9739 13.2224 15.6575 13.5238 16.4864C13.836 17.3045 13.9921 18.3057 13.9921 19.4898ZM9.82606 19.619C9.82606 18.8009 9.73456 18.1011 9.55155 17.5198C9.36855 16.9278 9.08866 16.4433 8.71189 16.0666C8.34588 15.6898 7.87223 15.4045 7.29092 15.2108C6.72038 15.017 6.04219 14.8986 5.25635 14.8555C5.21329 15.8028 5.17561 16.7986 5.14332 17.8428C5.12179 18.887 5.10026 19.9043 5.07873 20.8946C5.0572 21.8742 5.04105 22.7893 5.03028 23.6397C5.01952 24.4794 5.00876 25.1683 4.99799 25.7066C5.80536 25.6635 6.51046 25.4859 7.1133 25.1737C7.71614 24.8615 8.2167 24.4417 8.61501 23.9142C9.02407 23.3867 9.32549 22.7624 9.51926 22.0411C9.72379 21.3091 9.82606 20.5017 9.82606 19.619Z"
		fill="white" />
	<path
		d="M70.4721 12.9837C70.569 14.2648 70.6551 15.6104 70.7305 17.0206C70.7627 17.6234 70.795 18.2693 70.8273 18.9583C70.8596 19.6472 70.8865 20.3685 70.9081 21.122C70.9296 21.8648 70.9458 22.6291 70.9565 23.4149C70.978 24.19 70.9888 24.9651 70.9888 25.7402C70.9888 27.258 70.8919 28.7005 70.6982 30.0677C70.5044 31.4348 70.1868 32.6405 69.7455 33.6847C69.3041 34.7289 68.7228 35.5578 68.0015 36.1714C67.2803 36.785 66.3922 37.0918 65.3372 37.0918C65.3157 37.0918 65.2188 37.0864 65.0466 37.0756C64.8851 37.0649 64.6752 37.0272 64.4168 36.9626C64.1585 36.898 63.8678 36.7958 63.5449 36.6558C63.2327 36.5159 62.9151 36.3167 62.5922 36.0584C62.2692 35.8 61.9624 35.4717 61.6718 35.0734C61.3811 34.6643 61.1389 34.1691 60.9451 33.5878C60.7191 34.1368 60.4499 34.5943 60.1378 34.9603C59.8256 35.3263 59.5026 35.6331 59.1689 35.8807C58.8352 36.1176 58.4961 36.3006 58.1516 36.4297C57.8179 36.5589 57.5165 36.6504 57.2474 36.7043C56.9783 36.7581 56.7522 36.7904 56.5692 36.8011C56.3862 36.8119 56.2785 36.8173 56.2462 36.8173C55.6003 36.8173 55.046 36.6666 54.5831 36.3652C54.1309 36.0745 53.7434 35.6708 53.4204 35.1541C53.1083 34.6266 52.8607 34.013 52.6777 33.3133C52.4947 32.6028 52.3493 31.8385 52.2417 31.0204C52.1448 30.1915 52.0802 29.3249 52.0479 28.4206C52.0264 27.5164 52.0156 26.6121 52.0156 25.7079C52.0156 24.8897 52.021 24.077 52.0318 23.2696C52.0425 22.4515 52.0533 21.6603 52.0641 20.896C52.0856 20.1316 52.1071 19.3996 52.1287 18.6999C52.161 17.9894 52.1879 17.3328 52.2094 16.7299C52.2632 15.309 52.3278 13.9687 52.4032 12.7092L57.1343 12.8384C56.9298 14.0871 56.7468 15.4005 56.5853 16.7784C56.5207 17.3704 56.4562 18.0056 56.3916 18.6838C56.327 19.362 56.2678 20.0724 56.2139 20.8152C56.1709 21.5472 56.1332 22.3062 56.1009 23.092C56.0686 23.8671 56.0525 24.6422 56.0525 25.4172C56.0525 26.0093 56.0525 26.6068 56.0525 27.2096C56.0632 27.8124 56.0794 28.3991 56.1009 28.9697C56.1332 29.5294 56.1763 30.0569 56.2301 30.5521C56.2839 31.0365 56.3593 31.4671 56.4562 31.8439C56.5638 32.2099 56.693 32.5005 56.8437 32.7158C57.0052 32.9204 57.2043 33.0226 57.4411 33.0226C57.6672 33.0226 57.8771 32.8827 58.0709 32.6028C58.2754 32.3229 58.4531 31.9569 58.6038 31.5048C58.7652 31.0419 58.9052 30.5252 59.0236 29.9546C59.1528 29.3733 59.255 28.792 59.3304 28.2107C59.4165 27.6187 59.4811 27.0481 59.5242 26.4991C59.5672 25.9501 59.5888 25.4764 59.5888 25.0781C59.5888 24.949 59.5941 24.7821 59.6049 24.5776C59.6049 24.3946 59.6049 24.1631 59.6049 23.8832C59.6157 23.5926 59.621 23.2427 59.621 22.8336C59.621 22.0155 59.6103 20.9121 59.5888 19.5234C59.5672 18.124 59.5349 16.3747 59.4919 14.2755L63.5933 14.437C63.4964 16.1702 63.4157 17.6449 63.3511 18.8614C63.2865 20.0778 63.2327 21.0951 63.1896 21.9132C63.1466 22.7206 63.1143 23.3719 63.0927 23.8671C63.082 24.3515 63.0712 24.739 63.0604 25.0297C63.0604 25.3096 63.0604 25.5249 63.0604 25.6756C63.0604 25.8155 63.0604 25.9501 63.0604 26.0793C63.0604 26.5422 63.0766 27.0427 63.1089 27.581C63.1519 28.1085 63.2112 28.6359 63.2865 29.1634C63.3726 29.6909 63.4749 30.2022 63.5933 30.6974C63.7225 31.1818 63.8624 31.6124 64.0131 31.9892C64.1746 32.3552 64.3522 32.6513 64.546 32.8773C64.7505 33.1034 64.9712 33.2164 65.208 33.2164C65.5741 33.2164 65.8647 33.0119 66.08 32.6028C66.3061 32.1937 66.4729 31.6394 66.5806 30.9396C66.699 30.2292 66.7743 29.411 66.8066 28.4852C66.8389 27.5487 66.8551 26.5583 66.8551 25.5141C66.8551 23.8886 66.8174 22.3869 66.742 21.009C66.6775 19.6311 66.5913 18.4093 66.4837 17.3435C66.376 16.267 66.263 15.352 66.1446 14.5985C66.0369 13.8342 65.9454 13.2582 65.8701 12.8707L70.4721 12.9837Z"
		fill="white" />
	<path
		d="M38.9361 5.33744C39.2829 3.10731 38.3283 1.13325 36.7967 0.925791C36.7097 0.913744 36.622 0.907786 36.5342 0.907963C35.0998 0.907963 33.7335 2.48008 33.4061 4.58218C33.0593 6.81232 34.0139 8.78638 35.5455 8.99383C35.633 9.00518 35.7206 9.01166 35.8081 9.01166C37.2424 9.01166 38.612 7.43306 38.9361 5.33744Z"
		fill="#1B85F3" />
	<path
		d="M27.8842 8.99383C27.7969 9.00514 27.7097 9.01162 27.6208 9.01166C26.1867 9.01106 24.8193 7.43266 24.4887 5.33744C24.1435 3.10731 25.0981 1.13325 26.6281 0.92579C26.7156 0.914445 26.8031 0.907962 26.8923 0.907962C28.3266 0.907962 29.6945 2.48008 30.0236 4.58218C30.3688 6.81232 29.4142 8.78638 27.8842 8.99383Z"
		fill="#1B85F3" />
	<path
		d="M44.3267 7.39092C44.5528 7.39061 44.7766 7.43581 44.9848 7.52382C46.3024 8.09432 46.6979 10.3066 45.8616 12.4703C45.1549 14.292 43.8 15.4946 42.6023 15.4946C42.377 15.4946 42.1533 15.4509 41.9443 15.3617C40.6185 14.7912 40.2311 12.5789 41.0723 10.4152C41.7741 8.60647 43.1112 7.41037 44.3024 7.39092H44.3267Z"
		fill="#1B85F3" />
	<path
		d="M22.3558 10.4152C23.1954 12.5757 22.8096 14.7912 21.4871 15.3617C21.2764 15.4509 21.0544 15.4946 20.8275 15.4946C19.6314 15.4946 18.278 14.292 17.5714 12.4703C16.7319 10.3099 17.1176 8.09432 18.4401 7.52382C18.6508 7.43468 18.8729 7.39092 19.0998 7.39092C20.2959 7.39092 21.6492 8.59351 22.3558 10.4152Z"
		fill="#1B85F3" />
	<path
		d="M31.7649 13.6572C34.9143 13.6572 35.7673 14.9137 38.5191 19.8899C39.6749 21.9724 41.4897 23.2638 43.1793 24.466C44.9343 25.7148 46.554 26.8673 47.1594 28.7105C47.4021 29.3711 47.5247 30.3983 47.5247 31.1088C47.5247 34.0432 45.556 36.095 43.0219 36.095C39.3614 36.095 37.4352 33.7158 35.7696 31.6584C34.5007 30.0911 33.383 28.7105 31.7649 28.7105C30.1272 28.7105 28.951 30.1245 27.6279 31.715C25.9275 33.7592 23.9845 36.095 20.5078 36.095C17.9738 36.095 16.005 34.0407 16.005 31.1088C16 30.3983 16.1201 29.3711 16.3628 28.7105C16.9635 26.8877 18.4782 25.8961 20.1336 24.8123C21.7522 23.7526 23.5054 22.6047 24.6704 20.5057C27.4221 15.5395 28.6154 13.6572 31.7649 13.6572Z"
		fill="#1B85F3" />
	<path
		d="M38.9361 5.33744C39.2829 3.10731 38.3283 1.13325 36.7967 0.925791C36.7097 0.913744 36.622 0.907786 36.5342 0.907963C35.0998 0.907963 33.7335 2.48008 33.4061 4.58218C33.0593 6.81232 34.0139 8.78638 35.5455 8.99383C35.633 9.00518 35.7206 9.01166 35.8081 9.01166C37.2424 9.01166 38.612 7.43306 38.9361 5.33744Z"
		stroke="#1B85F3" stroke-width="1.6027" stroke-linecap="round" stroke-linejoin="round" />
	<path
		d="M27.8842 8.99383C27.7969 9.00514 27.7097 9.01162 27.6208 9.01166C26.1867 9.01106 24.8193 7.43266 24.4887 5.33744C24.1435 3.10731 25.0981 1.13325 26.6281 0.92579C26.7156 0.914445 26.8031 0.907962 26.8923 0.907962C28.3266 0.907962 29.6945 2.48008 30.0236 4.58218C30.3688 6.81232 29.4142 8.78638 27.8842 8.99383Z"
		stroke="#1B85F3" stroke-width="1.6027" stroke-linecap="round" stroke-linejoin="round" />
	<path
		d="M44.3267 7.39092C44.5528 7.39061 44.7766 7.43581 44.9848 7.52382C46.3024 8.09432 46.6979 10.3066 45.8616 12.4703C45.1549 14.292 43.8 15.4946 42.6023 15.4946C42.377 15.4946 42.1533 15.4509 41.9443 15.3617C40.6185 14.7912 40.2311 12.5789 41.0723 10.4152C41.7741 8.60647 43.1112 7.41037 44.3024 7.39092H44.3267Z"
		stroke="#1B85F3" stroke-width="1.6027" stroke-linecap="round" stroke-linejoin="round" />
	<path
		d="M22.3558 10.4152C23.1954 12.5757 22.8096 14.7912 21.4871 15.3617C21.2764 15.4509 21.0544 15.4946 20.8275 15.4946C19.6314 15.4946 18.278 14.292 17.5714 12.4703C16.7319 10.3099 17.1176 8.09432 18.4401 7.52382C18.6508 7.43468 18.8729 7.39092 19.0998 7.39092C20.2959 7.39092 21.6492 8.59351 22.3558 10.4152Z"
		stroke="#1B85F3" stroke-width="1.6027" stroke-linecap="round" stroke-linejoin="round" />
	<path
		d="M31.7649 13.6572C34.9143 13.6572 35.7673 14.9137 38.5191 19.8899C39.6749 21.9724 41.4897 23.2638 43.1793 24.466C44.9343 25.7148 46.554 26.8673 47.1594 28.7105C47.4021 29.3711 47.5247 30.3983 47.5247 31.1088C47.5247 34.0432 45.556 36.095 43.0219 36.095C39.3614 36.095 37.4352 33.7158 35.7696 31.6584C34.5007 30.0911 33.383 28.7105 31.7649 28.7105C30.1272 28.7105 28.951 30.1245 27.6279 31.715C25.9275 33.7592 23.9845 36.095 20.5078 36.095C17.9738 36.095 16.005 34.0407 16.005 31.1088C16 30.3983 16.1201 29.3711 16.3628 28.7105C16.9635 26.8877 18.4782 25.8961 20.1336 24.8123C21.7522 23.7526 23.5054 22.6047 24.6704 20.5057C27.4221 15.5395 28.6154 13.6572 31.7649 13.6572Z"
		stroke="#1B85F3" stroke-width="1.6027" stroke-linecap="round" stroke-linejoin="round" />
	<path
		d="M100.843 29.5189C100.789 30.5738 100.601 31.4888 100.278 32.2639C99.9546 33.0282 99.5402 33.6849 99.0342 34.2339C98.539 34.7721 97.9739 35.2135 97.3388 35.558C96.7144 35.8917 96.0793 36.1554 95.4334 36.3492C94.7982 36.543 94.1685 36.6721 93.5441 36.7367C92.9305 36.8121 92.3869 36.8498 91.9132 36.8498C90.9982 36.8498 90.137 36.8229 89.3297 36.769C88.533 36.7152 87.7526 36.6237 86.9883 36.4945C87.0529 35.8163 87.1067 35.0736 87.1498 34.2662C87.1928 33.4481 87.2305 32.6192 87.2628 31.7795C87.2951 30.9291 87.3166 30.0948 87.3274 29.2766C87.3381 28.4585 87.3489 27.705 87.3597 27.016C87.3704 26.3163 87.3758 25.7135 87.3758 25.2075C87.3758 24.6908 87.3758 24.3194 87.3758 24.0933C87.3651 22.5539 87.3435 21.0684 87.3112 19.6367C87.3005 19.0231 87.2843 18.3987 87.2628 17.7636C87.252 17.1177 87.2359 16.4933 87.2143 15.8905C87.2036 15.2769 87.1874 14.7009 87.1659 14.1627C87.1444 13.6137 87.1175 13.1293 87.0852 12.7094C87.3866 12.6664 87.7149 12.6341 88.0702 12.6125C88.4362 12.591 88.7968 12.5749 89.152 12.5641C89.518 12.5426 89.8733 12.5318 90.2178 12.5318C90.573 12.521 90.896 12.5157 91.1866 12.5157C92.4892 12.5157 93.7164 12.6125 94.8682 12.8063C96.0308 13.0001 97.0427 13.3338 97.9039 13.8074C98.7759 14.2703 99.4595 14.8893 99.9546 15.6644C100.461 16.4287 100.714 17.3868 100.714 18.5386C100.66 19.2384 100.488 19.895 100.197 20.5086C100.068 20.7777 99.9062 21.0522 99.7124 21.3321C99.5294 21.6013 99.298 21.8596 99.0181 22.1072C98.7382 22.3548 98.4099 22.5862 98.0331 22.8015C97.6563 23.0168 97.2257 23.1945 96.7413 23.3344C97.441 23.5174 98.0277 23.7919 98.5014 24.1579C98.975 24.5239 99.3626 24.933 99.664 25.3851C99.9762 25.8265 100.208 26.284 100.358 26.7577C100.52 27.2313 100.633 27.6673 100.697 28.0656C100.773 28.4639 100.816 28.7976 100.827 29.0667C100.837 29.3359 100.843 29.4866 100.843 29.5189ZM96.3053 29.6803C96.273 28.7761 96.1223 27.9633 95.8532 27.2421C95.7348 26.9407 95.5841 26.6446 95.4011 26.354C95.2288 26.0525 95.0135 25.7888 94.7552 25.5627C94.4968 25.3259 94.19 25.1375 93.8348 24.9976C93.4795 24.8576 93.0705 24.7877 92.6076 24.7877C92.4892 24.7877 92.3654 24.7931 92.2362 24.8038C92.107 24.8146 91.9671 24.8307 91.8164 24.8523L91.6872 33.9755C92.0101 34.0401 92.3277 34.0724 92.6399 34.0724C93.092 34.0724 93.4849 34.0132 93.8186 33.8948C94.1631 33.7656 94.4645 33.5988 94.7229 33.3942C94.9812 33.1789 95.1965 32.9421 95.3688 32.6837C95.5518 32.4254 95.7025 32.1563 95.8209 31.8764C96.1008 31.2305 96.2623 30.4985 96.3053 29.6803ZM96.2407 18.4417C96.1977 17.8389 96.047 17.3007 95.7886 16.827C95.681 16.6225 95.541 16.4233 95.3688 16.2296C95.2073 16.0358 95.0028 15.8635 94.7552 15.7128C94.5183 15.5621 94.2331 15.4383 93.8994 15.3414C93.5764 15.2446 93.1996 15.1961 92.769 15.1961C92.4246 15.1961 92.0424 15.2284 91.6226 15.293L91.8164 22.1395H92.1716C92.839 22.1395 93.4042 22.0534 93.8671 21.8811C94.33 21.6981 94.7121 21.4775 95.0135 21.2191C95.315 20.95 95.5464 20.6593 95.7079 20.3471C95.8801 20.035 96.0039 19.7443 96.0793 19.4752C96.1546 19.1953 96.1977 18.9638 96.2084 18.7808C96.23 18.5871 96.2407 18.474 96.2407 18.4417Z"
		fill="white" />
	<path
		d="M118.448 25.2882C118.448 26.2033 118.415 27.129 118.351 28.0656C118.297 29.0021 118.184 29.9064 118.012 30.7784C117.85 31.6503 117.613 32.4738 117.301 33.2489C117 34.0132 116.607 34.6806 116.122 35.2512C115.638 35.8217 115.051 36.2685 114.362 36.5914C113.673 36.9251 112.855 37.092 111.908 37.092C111.004 37.092 110.218 36.9467 109.55 36.656C108.883 36.3761 108.312 35.994 107.839 35.5095C107.365 35.0144 106.978 34.433 106.676 33.7656C106.386 33.0874 106.154 32.3662 105.982 31.6019C105.81 30.8268 105.691 30.0194 105.627 29.1798C105.562 28.3401 105.53 27.5058 105.53 26.6769C105.53 26.4616 105.53 26.2732 105.53 26.1118C105.54 25.9503 105.551 25.778 105.562 25.595C105.573 25.4013 105.584 25.1752 105.594 24.9169C105.616 24.6477 105.637 24.3086 105.659 23.8996C105.68 23.4797 105.702 22.9684 105.723 22.3656C105.756 21.752 105.788 21.0038 105.82 20.1211C105.863 19.2384 105.901 18.1995 105.933 17.0046C105.976 15.799 106.025 14.3995 106.079 12.8063L110.907 12.9839C110.745 14.6417 110.595 16.0681 110.455 17.263C110.315 18.4471 110.191 19.4913 110.083 20.3956C109.976 21.2998 109.879 22.0964 109.793 22.7854C109.707 23.4743 109.637 24.1418 109.583 24.7877C109.529 25.4336 109.486 26.0956 109.454 26.7738C109.432 27.452 109.421 28.2324 109.421 29.1152C109.421 30.7622 109.599 32.0109 109.954 32.8614C110.309 33.7118 110.907 34.137 111.746 34.137C112.661 34.137 113.361 33.5934 113.846 32.5061C114.341 31.4081 114.588 29.6857 114.588 27.339C114.588 24.7769 114.497 22.3064 114.314 19.9273C114.131 17.5375 113.889 15.18 113.587 12.8547L118.157 12.7094C118.135 13.1293 118.125 13.5437 118.125 13.9528C118.125 14.3511 118.125 14.7548 118.125 15.1638C118.125 16.2941 118.141 17.3922 118.173 18.4579C118.205 19.5129 118.243 20.4871 118.286 21.3806C118.329 22.2633 118.367 23.0438 118.399 23.7219C118.431 24.4001 118.448 24.9222 118.448 25.2882Z"
		fill="white" />
	<path
		d="M137.474 24.82C137.474 26.5746 137.307 28.0925 136.973 29.3735C136.65 30.6438 136.23 31.731 135.713 32.6353C135.197 33.5288 134.615 34.2554 133.97 34.8152C133.324 35.375 132.678 35.8056 132.032 36.107C131.386 36.4192 130.778 36.6291 130.207 36.7367C129.637 36.8552 129.168 36.9144 128.802 36.9144C128.716 36.9144 128.522 36.909 128.221 36.8982C127.93 36.8874 127.57 36.8605 127.139 36.8175C126.709 36.7852 126.219 36.7314 125.67 36.656C125.132 36.5806 124.566 36.473 123.974 36.3331C123.985 34.2016 123.996 32.3554 124.007 30.7945C124.028 29.2228 124.044 27.8718 124.055 26.7415C124.066 25.6112 124.077 24.6639 124.087 23.8996C124.098 23.1353 124.103 22.4786 124.103 21.9296C124.114 21.3806 124.12 20.9123 124.12 20.5248C124.13 20.1265 124.136 19.7389 124.136 19.3621C124.136 18.7701 124.13 18.1619 124.12 17.5375C124.109 16.9024 124.087 16.2888 124.055 15.6967C124.023 15.1046 123.98 14.5502 123.926 14.0335C123.872 13.5168 123.802 13.0754 123.716 12.7094C124.556 12.6556 125.32 12.6233 126.009 12.6125C126.709 12.591 127.311 12.5802 127.817 12.5802C129.088 12.5802 130.207 12.7363 131.176 13.0485C132.145 13.3499 132.985 13.7752 133.695 14.3242C134.416 14.8624 135.014 15.5137 135.487 16.278C135.972 17.0315 136.359 17.8604 136.65 18.7647C136.951 19.6689 137.161 20.6378 137.28 21.6712C137.409 22.6939 137.474 23.7435 137.474 24.82ZM133.275 24.3194C133.275 22.414 133.184 20.8639 133.001 19.6689C132.828 18.4633 132.543 17.5267 132.145 16.8593C131.757 16.1919 131.246 15.7397 130.611 15.5029C129.986 15.2553 129.228 15.1315 128.334 15.1315H127.85L128.043 34.1047C128.259 34.1908 128.458 34.25 128.641 34.2823C128.835 34.3039 129.023 34.3146 129.206 34.3146C129.927 34.3146 130.541 34.1478 131.047 33.8141C131.564 33.4696 131.983 32.9098 132.306 32.1347C132.64 31.3489 132.882 30.3208 133.033 29.0506C133.194 27.7696 133.275 26.1925 133.275 24.3194Z"
		fill="white" />
	<path
		d="M156.112 24.82C156.112 26.5746 155.945 28.0925 155.611 29.3735C155.288 30.6438 154.868 31.731 154.352 32.6353C153.835 33.5288 153.254 34.2554 152.608 34.8152C151.962 35.375 151.316 35.8056 150.67 36.107C150.024 36.4192 149.416 36.6291 148.846 36.7367C148.275 36.8552 147.807 36.9144 147.441 36.9144C147.355 36.9144 147.161 36.909 146.859 36.8982C146.569 36.8874 146.208 36.8605 145.778 36.8175C145.347 36.7852 144.857 36.7314 144.308 36.656C143.77 36.5806 143.205 36.473 142.613 36.3331C142.623 34.2016 142.634 32.3554 142.645 30.7945C142.666 29.2228 142.683 27.8718 142.693 26.7415C142.704 25.6112 142.715 24.6639 142.726 23.8996C142.736 23.1353 142.742 22.4786 142.742 21.9296C142.753 21.3806 142.758 20.9123 142.758 20.5248C142.769 20.1265 142.774 19.7389 142.774 19.3621C142.774 18.7701 142.769 18.1619 142.758 17.5375C142.747 16.9024 142.726 16.2888 142.693 15.6967C142.661 15.1046 142.618 14.5502 142.564 14.0335C142.51 13.5168 142.44 13.0754 142.354 12.7094C143.194 12.6556 143.958 12.6233 144.647 12.6125C145.347 12.591 145.95 12.5802 146.456 12.5802C147.726 12.5802 148.846 12.7363 149.814 13.0485C150.783 13.3499 151.623 13.7752 152.333 14.3242C153.055 14.8624 153.652 15.5137 154.126 16.278C154.61 17.0315 154.998 17.8604 155.288 18.7647C155.59 19.6689 155.8 20.6378 155.918 21.6712C156.047 22.6939 156.112 23.7435 156.112 24.82ZM151.914 24.3194C151.914 22.414 151.822 20.8639 151.639 19.6689C151.467 18.4633 151.181 17.5267 150.783 16.8593C150.396 16.1919 149.884 15.7397 149.249 15.5029C148.625 15.2553 147.866 15.1315 146.972 15.1315H146.488L146.682 34.1047C146.897 34.1908 147.096 34.25 147.279 34.2823C147.473 34.3039 147.661 34.3146 147.844 34.3146C148.566 34.3146 149.179 34.1478 149.685 33.8141C150.202 33.4696 150.622 32.9098 150.945 32.1347C151.278 31.3489 151.521 30.3208 151.671 29.0506C151.833 27.7696 151.914 26.1925 151.914 24.3194Z"
		fill="white" />
	<path
		d="M173.135 12.887C172.662 14.1358 172.215 15.3845 171.795 16.6332C171.375 17.882 170.972 19.1361 170.584 20.3956C170.207 21.6551 169.836 22.92 169.47 24.1902C169.104 25.4605 168.738 26.7307 168.372 28.001C168.447 29.4435 168.528 30.8752 168.614 32.2962C168.7 33.7064 168.819 35.1274 168.969 36.5591L164.044 36.7529C164.184 35.0736 164.287 33.4104 164.351 31.7633C164.427 30.1163 164.48 28.4531 164.513 26.7738C163.673 24.3732 162.79 22.0157 161.865 19.7012C160.939 17.376 159.959 15.0562 158.926 12.7417C159.722 12.7202 160.567 12.6879 161.461 12.6448C162.354 12.591 163.183 12.5049 163.948 12.3865C164.141 13.3768 164.324 14.3672 164.497 15.3576C164.68 16.348 164.863 17.3437 165.046 18.3449C165.239 19.3352 165.444 20.3202 165.659 21.2998C165.874 22.2794 166.122 23.2429 166.402 24.1902C166.865 22.2525 167.279 20.3041 167.645 18.3449C168.011 16.3856 168.334 14.4533 168.614 12.5479C170.1 12.7417 171.607 12.8547 173.135 12.887Z"
		fill="white" />
</svg>
