<svg width="20" height="20" viewBox="0 0 20 20" fill="none" xmlns="http://www.w3.org/2000/svg">
	<path
		d="M11.6663 5.83336H16.6663M14.1663 3.33336V8.33336M4.16634 3.33336H7.49967C7.95991 3.33336 8.33301 3.70645 8.33301 4.16669V7.50003C8.33301 7.96026 7.95991 8.33336 7.49967 8.33336H4.16634C3.7061 8.33336 3.33301 7.96026 3.33301 7.50003V4.16669C3.33301 3.70645 3.7061 3.33336 4.16634 3.33336ZM4.16634 11.6667H7.49967C7.95991 11.6667 8.33301 12.0398 8.33301 12.5V15.8334C8.33301 16.2936 7.95991 16.6667 7.49967 16.6667H4.16634C3.7061 16.6667 3.33301 16.2936 3.33301 15.8334V12.5C3.33301 12.0398 3.7061 11.6667 4.16634 11.6667ZM12.4997 11.6667H15.833C16.2932 11.6667 16.6663 12.0398 16.6663 12.5V15.8334C16.6663 16.2936 16.2932 16.6667 15.833 16.6667H12.4997C12.0394 16.6667 11.6663 16.2936 11.6663 15.8334V12.5C11.6663 12.0398 12.0394 11.6667 12.4997 11.6667Z"
		stroke="currentColor" stroke-width="1.5" stroke-linecap="round" stroke-linejoin="round" />
</svg>
