<svg width="40" height="40" viewBox="0 0 40 40" fill="none" xmlns="http://www.w3.org/2000/svg">
	<g clip-path="url(#clip0_1395_42935)">
		<path
			d="M1.30729 32.4097C-0.434461 30.668 -0.434461 27.8477 1.30729 26.1059L26.1139 1.30607C27.8556 -0.435682 30.6759 -0.435682 32.4177 1.30607L38.6947 7.58308C40.4364 9.32483 40.4364 12.1451 38.6947 13.8869L13.8881 38.6934C12.1463 40.4352 9.32605 40.4352 7.5843 38.6934L1.30729 32.4097Z"
			fill="#FC5A5A" />
		<path
			d="M32.411 38.6934C30.6692 40.4352 27.8489 40.4352 26.1072 38.6934L1.30729 13.8869C-0.434461 12.1451 -0.434461 9.32483 1.30729 7.58308L7.5843 1.30607C9.32605 -0.435682 12.1463 -0.435682 13.8881 1.30607L38.6947 26.1126C40.4364 27.8544 40.4364 30.6747 38.6947 32.4164L32.4177 38.6934H32.411Z"
			fill="#FD8C8C" />
		<path
			d="M23.1527 27.5592C21.411 29.301 18.5907 29.301 16.8489 27.5592L12.4342 23.1446C10.6925 21.4028 10.6925 18.5825 12.4342 16.8408L16.8489 12.4328C18.5907 10.691 21.411 10.691 23.1527 12.4328L27.5607 16.8408C29.3024 18.5825 29.3024 21.4028 27.5607 23.1446L23.1527 27.5592Z"
			fill="#FC5A5A" />
		<path
			d="M21.3907 13.7391C21.1897 13.9401 20.8615 13.9401 20.6605 13.7391C20.4595 13.5381 20.4595 13.2099 20.6605 13.0089C20.8615 12.8079 21.1897 12.8079 21.3907 13.0089C21.5917 13.2099 21.5917 13.5381 21.3907 13.7391Z"
			fill="white" />
		<path
			d="M24.3253 16.6795C24.1243 16.8805 23.796 16.8805 23.5951 16.6795C23.3941 16.4785 23.3941 16.1503 23.5951 15.9493C23.796 15.7483 24.1243 15.7483 24.3253 15.9493C24.5262 16.1503 24.5262 16.4785 24.3253 16.6795Z"
			fill="white" />
		<path
			d="M27.2589 19.6141C27.0579 19.8151 26.7296 19.8151 26.5287 19.6141C26.3277 19.4131 26.3277 19.0849 26.5287 18.8839C26.7296 18.6829 27.0579 18.6829 27.2589 18.8839C27.4598 19.0849 27.4598 19.4131 27.2589 19.6141Z"
			fill="white" />
		<path
			d="M17.5723 17.2293C17.3714 17.4303 17.0431 17.4303 16.8421 17.2293C16.6412 17.0283 16.6412 16.7001 16.8421 16.4991C17.0431 16.2981 17.3714 16.2981 17.5723 16.4991C17.7733 16.7001 17.7733 17.0283 17.5723 17.2293Z"
			fill="white" />
		<path
			d="M20.5069 20.1634C20.3059 20.3644 19.9777 20.3644 19.7767 20.1634C19.5757 19.9624 19.5757 19.6342 19.7767 19.4332C19.9777 19.2322 20.3059 19.2322 20.5069 19.4332C20.7079 19.6342 20.7079 19.9624 20.5069 20.1634Z"
			fill="white" />
		<path
			d="M23.4415 23.098C23.2405 23.2989 22.9122 23.2989 22.7113 23.098C22.5103 22.897 22.5103 22.5687 22.7113 22.3678C22.9122 22.1668 23.2405 22.1668 23.4415 22.3678C23.6424 22.5687 23.6424 22.897 23.4415 23.098Z"
			fill="white" />
		<path
			d="M14.0889 21.0408C13.888 21.2418 13.5597 21.2418 13.3587 21.0408C13.1578 20.8399 13.1578 20.5116 13.3587 20.3106C13.5597 20.1097 13.888 20.1097 14.0889 20.3106C14.2899 20.5116 14.2899 20.8399 14.0889 21.0408Z"
			fill="white" />
		<path
			d="M17.0235 23.9822C16.8225 24.1832 16.4943 24.1832 16.2933 23.9822C16.0923 23.7813 16.0923 23.453 16.2933 23.252C16.4943 23.0511 16.8225 23.0511 17.0235 23.252C17.2245 23.453 17.2245 23.7813 17.0235 23.9822Z"
			fill="white" />
		<path
			d="M19.9581 26.9158C19.7571 27.1168 19.4288 27.1168 19.2279 26.9158C19.0269 26.7149 19.0269 26.3866 19.2279 26.1856C19.4288 25.9847 19.7571 25.9847 19.9581 26.1856C20.159 26.3866 20.159 26.7149 19.9581 26.9158Z"
			fill="white" />
		<path
			d="M17.9883 13.994C17.7874 14.1949 17.4591 14.1949 17.2582 13.994C17.0572 13.793 17.0572 13.4647 17.2582 13.2638C17.4591 13.0628 17.7874 13.0628 17.9883 13.2638C18.1893 13.4647 18.1893 13.793 17.9883 13.994Z"
			fill="white" />
		<path
			d="M20.9219 16.9278C20.721 17.1288 20.3927 17.1288 20.1917 16.9278C19.9908 16.7268 19.9908 16.3986 20.1917 16.1976C20.3927 15.9966 20.721 15.9966 20.9219 16.1976C21.1229 16.3986 21.1229 16.7268 20.9219 16.9278Z"
			fill="white" />
		<path
			d="M23.8565 19.8621C23.6555 20.0631 23.3273 20.0631 23.1263 19.8621C22.9253 19.6612 22.9253 19.3329 23.1263 19.1319C23.3273 18.931 23.6555 18.931 23.8565 19.1319C24.0575 19.3329 24.0575 19.6612 23.8565 19.8621Z"
			fill="white" />
		<path
			d="M26.7969 22.7965C26.596 22.9974 26.2677 22.9974 26.0667 22.7965C25.8658 22.5955 25.8658 22.2672 26.0667 22.0663C26.2677 21.8653 26.596 21.8653 26.7969 22.0663C26.9979 22.2672 26.9979 22.5955 26.7969 22.7965Z"
			fill="white" />
		<path
			d="M14.2764 17.5843C14.0755 17.7853 13.7472 17.7853 13.5462 17.5843C13.3453 17.3833 13.3453 17.0551 13.5462 16.8541C13.7472 16.6531 14.0755 16.6531 14.2764 16.8541C14.4774 17.0551 14.4774 17.3833 14.2764 17.5843Z"
			fill="white" />
		<path
			d="M17.2169 20.5186C17.0159 20.7196 16.6876 20.7196 16.4867 20.5186C16.2857 20.3176 16.2857 19.9894 16.4867 19.7884C16.6876 19.5875 17.0159 19.5875 17.2169 19.7884C17.4178 19.9894 17.4178 20.3176 17.2169 20.5186Z"
			fill="white" />
		<path
			d="M20.1514 23.4525C19.9505 23.6534 19.6222 23.6534 19.4212 23.4525C19.2203 23.2515 19.2203 22.9232 19.4212 22.7223C19.6222 22.5213 19.9505 22.5213 20.1514 22.7223C20.3524 22.9232 20.3524 23.2515 20.1514 23.4525Z"
			fill="white" />
		<path
			d="M23.086 26.3939C22.885 26.5948 22.5568 26.5948 22.3558 26.3939C22.1548 26.1929 22.1548 25.8646 22.3558 25.6637C22.5568 25.4627 22.885 25.4627 23.086 25.6637C23.287 25.8646 23.287 26.1929 23.086 26.3939Z"
			fill="white" />
	</g>
	<defs>
		<clipPath id="clip0_1395_42935">
			<rect width="40" height="40" fill="white" transform="translate(0.000976562 -0.000244141)" />
		</clipPath>
	</defs>
</svg>
