<svg width="17" height="16" viewBox="0 0 17 16" fill="none" xmlns="http://www.w3.org/2000/svg">
	<path
		d="M0.996582 10.3358C1.25658 10.4483 1.54158 10.5058 1.83325 10.4999C2.15783 10.5067 2.47918 10.4344 2.76956 10.2892C3.05994 10.144 3.31061 9.93033 3.49992 9.66659C3.68922 9.40285 3.93989 9.18915 4.23027 9.04397C4.52065 8.89878 4.842 8.82646 5.16658 8.83326C5.49116 8.82646 5.81252 8.89878 6.1029 9.04397C6.39327 9.18915 6.64394 9.40285 6.83325 9.66659C7.02256 9.93033 7.27322 10.144 7.5636 10.2892C7.85398 10.4344 8.17533 10.5067 8.49991 10.4999C8.8245 10.5067 9.14585 10.4344 9.43623 10.2892C9.72661 10.144 9.97727 9.93033 10.1666 9.66659C10.3559 9.40285 10.6066 9.18915 10.8969 9.04397C11.1873 8.89878 11.5087 8.82646 11.8332 8.83326C12.1578 8.82646 12.4792 8.89878 12.7696 9.04397C13.0599 9.18915 13.3106 9.40285 13.4999 9.66659C13.6892 9.93033 13.9399 10.144 14.2303 10.2892C14.5206 10.4344 14.842 10.5067 15.1666 10.4999C15.4582 10.5058 15.7432 10.4483 16.0032 10.3358M0.999939 14.6666H15.9999V7.99992C15.9999 7.33688 15.7365 6.70099 15.2677 6.23215C14.7989 5.76331 14.163 5.49992 13.4999 5.49992H3.49994C2.8369 5.49992 2.20101 5.76331 1.73217 6.23215C1.26333 6.70099 0.999939 7.33688 0.999939 7.99992V14.6666ZM8.49995 1.33325L9.72078 2.69825C9.93863 2.93245 10.0845 3.22438 10.1409 3.53921C10.1974 3.85404 10.1621 4.17847 10.0392 4.47377C9.91629 4.76907 9.71102 5.02277 9.44788 5.20459C9.18473 5.38641 8.87482 5.48868 8.55515 5.49917C8.23547 5.50967 7.91952 5.42796 7.64501 5.26379C7.3705 5.09962 7.14903 4.85993 7.00703 4.57333C6.86503 4.28673 6.8085 3.96532 6.84419 3.64746C6.87987 3.32961 7.00626 3.02873 7.20828 2.78075L8.49995 1.33325Z"
		stroke="currentColor" stroke-width="1.5" stroke-linecap="round" stroke-linejoin="round" />
</svg>
