<svg width="20" height="20" viewBox="0 0 20 20" fill="none" xmlns="http://www.w3.org/2000/svg">
	<path
		d="M5 15.8334C6.38071 15.8334 7.5 14.7141 7.5 13.3334C7.5 11.9527 6.38071 10.8334 5 10.8334C3.61929 10.8334 2.5 11.9527 2.5 13.3334C2.5 14.7141 3.61929 15.8334 5 15.8334Z"
		stroke="currentColor" stroke-width="1.5" stroke-linecap="round" stroke-linejoin="round" />
	<path
		d="M13.3333 17.5C14.2538 17.5 15 16.7538 15 15.8334C15 14.9129 14.2538 14.1667 13.3333 14.1667C12.4129 14.1667 11.6667 14.9129 11.6667 15.8334C11.6667 16.7538 12.4129 17.5 13.3333 17.5Z"
		stroke="currentColor" stroke-width="1.5" stroke-linecap="round" stroke-linejoin="round" />
	<path
		d="M12.0833 10C14.1544 10 15.8333 8.3211 15.8333 6.25003C15.8333 4.17896 14.1544 2.50003 12.0833 2.50003C10.0123 2.50003 8.33333 4.17896 8.33333 6.25003C8.33333 8.3211 10.0123 10 12.0833 10Z"
		stroke="currentColor" stroke-width="1.5" stroke-linecap="round" stroke-linejoin="round" />
</svg>
