<svg width="20" height="20" viewBox="0 0 20 20" fill="none" xmlns="http://www.w3.org/2000/svg">
	<path
		d="M8.60417 3.59753C8.95917 2.1342 11.0408 2.1342 11.3958 3.59753C11.4491 3.81736 11.5535 4.02151 11.7006 4.19336C11.8477 4.36521 12.0332 4.49991 12.2422 4.58649C12.4512 4.67306 12.6776 4.70907 12.9032 4.69159C13.1287 4.6741 13.3469 4.60362 13.54 4.48586C14.8258 3.70253 16.2983 5.1742 15.515 6.46086C15.3974 6.65391 15.327 6.87198 15.3096 7.09734C15.2922 7.3227 15.3281 7.549 15.4146 7.75785C15.5011 7.96669 15.6356 8.15218 15.8073 8.29924C15.9789 8.4463 16.1829 8.55079 16.4025 8.6042C17.8658 8.9592 17.8658 11.0409 16.4025 11.3959C16.1827 11.4491 15.9785 11.5535 15.8067 11.7006C15.6348 11.8477 15.5001 12.0333 15.4135 12.2422C15.327 12.4512 15.291 12.6777 15.3084 12.9032C15.3259 13.1287 15.3964 13.3469 15.5142 13.54C16.2975 14.8259 14.8258 16.2984 13.5392 15.515C13.3461 15.3974 13.1281 15.3271 12.9027 15.3096C12.6773 15.2922 12.451 15.3282 12.2422 15.4146C12.0333 15.5011 11.8479 15.6356 11.7008 15.8073C11.5537 15.979 11.4492 16.1829 11.3958 16.4025C11.0408 17.8659 8.95917 17.8659 8.60417 16.4025C8.5509 16.1827 8.44648 15.9785 8.29941 15.8067C8.15233 15.6348 7.96676 15.5002 7.75779 15.4136C7.54882 15.327 7.32236 15.291 7.09685 15.3085C6.87133 15.326 6.65313 15.3964 6.46 15.5142C5.17417 16.2975 3.70167 14.8259 4.485 13.5392C4.60258 13.3462 4.67296 13.1281 4.6904 12.9027C4.70785 12.6774 4.67187 12.4511 4.58539 12.2422C4.49892 12.0334 4.36438 11.8479 4.19273 11.7008C4.02107 11.5538 3.81714 11.4493 3.5975 11.3959C2.13417 11.0409 2.13417 8.9592 3.5975 8.6042C3.81733 8.55093 4.02148 8.44651 4.19333 8.29944C4.36518 8.15236 4.49988 7.96679 4.58645 7.75782C4.67303 7.54885 4.70904 7.32239 4.69156 7.09688C4.67407 6.87136 4.60359 6.65316 4.48583 6.46003C3.7025 5.1742 5.17417 3.7017 6.46083 4.48503C7.29417 4.9917 8.37417 4.54336 8.60417 3.59753Z"
		stroke="currentColor" stroke-width="1.5" stroke-linecap="round" stroke-linejoin="round" />
	<path
		d="M10 12.5C11.3807 12.5 12.5 11.3807 12.5 10C12.5 8.61932 11.3807 7.50003 10 7.50003C8.61929 7.50003 7.5 8.61932 7.5 10C7.5 11.3807 8.61929 12.5 10 12.5Z"
		stroke="currentColor" stroke-width="1.5" stroke-linecap="round" stroke-linejoin="round" />
</svg>
