<svg width="21" height="20" viewBox="0 0 21 20" fill="none" xmlns="http://www.w3.org/2000/svg">
	<path
		d="M8 17.5V12.5C8 12.058 8.17559 11.634 8.48816 11.3215C8.80072 11.0089 9.22464 10.8333 9.66667 10.8333H11.3333C11.7754 10.8333 12.1993 11.0089 12.5118 11.3215C12.8244 11.634 13 12.058 13 12.5V17.5M4.66667 10H3L10.5 2.5L18 10H16.3333V15.8333C16.3333 16.2754 16.1577 16.6993 15.8452 17.0118C15.5326 17.3244 15.1087 17.5 14.6667 17.5H6.33333C5.89131 17.5 5.46738 17.3244 5.15482 17.0118C4.84226 16.6993 4.66667 16.2754 4.66667 15.8333V10Z"
		stroke="currentColor" stroke-width="1.5" stroke-linecap="round" stroke-linejoin="round" />
</svg>
