<svg width="32" height="40" viewBox="0 0 32 40" fill="none" xmlns="http://www.w3.org/2000/svg">
	<g clip-path="url(#clip0_1395_42918)">
		<path
			d="M6.94233 1.82754C6.94233 2.83665 6.57778 3.65557 5.56338 3.65557C4.54898 3.65557 3.73535 2.83665 3.73535 1.82754C3.73535 0.818426 4.55427 -0.000488281 5.56338 -0.000488281C6.57249 -0.000488281 6.94233 0.818426 6.94233 1.82754Z"
			fill="#FF974A" />
		<path
			d="M14.1855 1.82754C14.1855 0.818426 14.5501 -0.000488281 15.5645 -0.000488281C16.5789 -0.000488281 17.3925 0.818426 17.3925 1.82754C17.3925 2.83665 16.5736 3.65557 15.5645 3.65557C14.5554 3.65557 14.1855 2.83665 14.1855 1.82754Z"
			fill="#FF974A" />
		<path
			d="M18.5282 15.2898C18.5282 17.699 14.9514 20.383 10.5609 20.383C6.17048 20.383 2.59367 17.7043 2.59367 15.2898L0.443359 13.8528C0.443359 16.9171 4.98173 20.8479 10.5609 20.8479C16.1401 20.8479 20.6785 16.9171 20.6785 13.8528L18.5229 15.2898H18.5282Z"
			fill="white" />
		<path
			d="M10.5609 24.2713C4.98173 24.2713 0.443359 19.733 0.443359 14.1485V5.30422C0.443359 2.79464 2.488 0.75 4.99758 0.75V2.90559C3.67147 2.90559 2.59895 3.98339 2.59895 5.30422V14.1485C2.59895 18.5389 6.17048 22.1157 10.5662 22.1157C14.9619 22.1157 18.5334 18.5442 18.5334 14.1485V5.30422C18.5334 3.97811 17.4556 2.90559 16.1348 2.90559V0.75C18.6444 0.75 20.689 2.79464 20.689 5.30422V14.1485C20.689 19.7277 16.1507 24.2713 10.5715 24.2713H10.5609Z"
			fill="#FFC542" />
		<path
			d="M19.6219 40.0001C14.0427 40.0001 9.49902 35.4617 9.49902 29.8825V23.1938H11.6546V29.8825C11.6546 34.273 15.2261 37.8498 19.6219 37.8498C24.0176 37.8498 27.5891 34.2782 27.5891 29.8825V23.1938H29.7447V29.8825C29.7447 35.4617 25.2063 40.0001 19.6271 40.0001H19.6219Z"
			fill="#FFC542" />
		<path
			d="M31.4413 23.1354C31.4413 24.6148 30.242 25.8194 28.7626 25.8194C27.2833 25.8194 26.084 24.62 26.084 23.1354C26.084 21.6508 27.2833 20.4568 28.7626 20.4568C30.242 20.4568 31.4413 21.6561 31.4413 23.1354Z"
			fill="#FF974A" />
		<path
			d="M29.947 23.1354C29.947 23.7905 29.4187 24.3188 28.7635 24.3188C28.1084 24.3188 27.5801 23.7905 27.5801 23.1354C27.5801 22.4802 28.1084 21.9519 28.7635 21.9519C29.4187 21.9519 29.947 22.4802 29.947 23.1354Z"
			fill="white" />
	</g>
	<defs>
		<clipPath id="clip0_1395_42918">
			<rect width="30.9972" height="40" fill="white" transform="translate(0.443359 -0.000244141)" />
		</clipPath>
	</defs>
</svg>
