<svg width="16" height="15" viewBox="0 0 16 15" fill="none" xmlns="http://www.w3.org/2000/svg">
	<path d="M10.4997 4.08772H10.508M1.33301 9.92101L4.66634 6.58768C5.04639 6.22198 5.4775 6.02945 5.91634 6.02945C6.35518 6.02945 6.78629 6.22198 7.16634 6.58768L11.333 10.7543M9.66634 9.08768L10.4997 8.25434C10.8797 7.88864 11.3108 7.69612 11.7497 7.69612C12.1885 7.69612 12.6196 7.88864 12.9997 8.25434L14.6663 9.92101M3.83301 0.754384H12.1663C13.5471 0.754384 14.6663 1.87367 14.6663 3.25438V11.5877C14.6663 12.9684 13.5471 14.0877 12.1663 14.0877H3.83301C2.4523 14.0877 1.33301 12.9684 1.33301 11.5877V3.25438C1.33301 1.87367 2.4523 0.754384 3.83301 0.754384Z" stroke="currentColor" stroke-width="1.5" stroke-linecap="round" stroke-linejoin="round"/>
	</svg>
	