<svg width="38" height="34" viewBox="0 0 38 34" fill="none" xmlns="http://www.w3.org/2000/svg">
	<path
		d="M19.2447 24.0418C19.2447 29.3558 14.934 33.6664 9.62007 33.6664C4.30614 33.6664 0.000976562 29.3558 0.000976562 24.0418C0.000976562 18.7279 4.31165 14.4172 9.62558 14.4172C14.9395 14.4172 19.2502 18.7279 19.2502 24.0418H19.2447Z"
		fill="#FF9AD5" />
	<mask id="mask0_1395_42903" style="mask-type:alpha" maskUnits="userSpaceOnUse" x="0" y="14" width="20" height="20">
		<path
			d="M19.2447 24.0418C19.2447 29.3558 14.934 33.6664 9.62007 33.6664C4.30614 33.6664 0.000976562 29.3558 0.000976562 24.0418C0.000976562 18.7279 4.31165 14.4172 9.62558 14.4172C14.9395 14.4172 19.2502 18.7279 19.2502 24.0418H19.2447Z"
			fill="#FF9AD5" />
	</mask>
	<g mask="url(#mask0_1395_42903)">
		<path
			d="M8.65527 10.7355V37.047C9.38163 37.1542 10.1152 37.2279 10.8775 37.2279V10.5613C10.1224 10.5613 9.38163 10.635 8.65527 10.7422V10.7355Z"
			fill="white" />
	</g>
	<path
		d="M36.8953 26.2301V26.5081C36.7494 30.1792 33.727 33.1108 30.0202 33.1108C26.2203 33.1108 23.1395 30.03 23.1395 26.2301V7.7692C23.1395 3.96931 26.2203 0.888563 30.0202 0.888563C33.8195 0.888563 36.8953 3.96877 36.8953 7.7692V26.2301Z"
		fill="white" stroke="#FF9AD5" stroke-width="1.11111" />
	<path
		d="M30.0202 0.333008C25.9135 0.333008 22.584 3.66248 22.584 7.7692V16.9969H37.4564V7.7692C37.4509 3.66248 34.1269 0.333008 30.0202 0.333008Z"
		fill="#FF9AD5" />
</svg>
