<svg width="28" height="28" viewBox="0 0 28 28" fill="none" xmlns="http://www.w3.org/2000/svg">
	<path
		d="M20.5436 17.2158C19.9645 17.1634 20.1974 16.0068 20.1974 16.0068C20.2506 15.5496 20.2467 15.1135 20.1427 14.7306C20.4616 15.1034 20.4381 15.8036 20.4381 15.8036C20.4585 16.9594 21.0188 17.1446 21.0188 17.1446C20.6382 16.775 20.6984 15.7809 20.6984 15.7809C20.7124 14.5774 20.181 14.2203 19.845 14.1148C19.6332 13.8381 19.3206 13.6193 18.8783 13.4794C18.2226 13.2731 16.0196 13.5529 15.3444 13.5623C14.1729 13.5779 12.7881 13.6881 11.837 12.8519C11.5018 12.5565 11.1938 11.9563 10.993 11.557C10.8891 11.3506 10.8203 11.1428 10.653 10.9747C10.4913 10.8114 10.2857 10.6958 10.0724 10.6129C9.7426 10.4855 9.37218 10.4629 9.03145 10.5606C8.87906 10.6043 8.72432 10.6832 8.63835 10.8192C8.54301 10.9708 8.45626 11.1131 8.32419 11.2365C8.18274 11.3686 7.6482 11.5491 7.46455 11.5992C7.4161 11.6124 7.36451 11.6265 7.31606 11.6445C7.29184 11.6351 7.26371 11.632 7.23323 11.6367C7.18556 11.6437 7.13397 11.6632 7.09099 11.6836C7.06755 11.6945 7.04411 11.7086 7.0277 11.7297C6.98237 11.7875 7.00191 11.8711 7.02145 11.9352C7.03317 11.9712 7.04879 12.0118 7.07302 12.0438C7.0863 12.1103 7.11053 12.1759 7.13476 12.2275C7.3739 12.7362 8.44767 12.5549 8.9025 12.5455C9.07365 12.5416 9.24792 12.5385 9.41438 12.5784C9.41126 12.8027 9.45892 13.0176 9.61209 13.1496C9.60819 13.1457 9.60429 13.1426 9.60038 13.1387C9.60741 13.1418 9.61444 13.145 9.62147 13.1481C10.2678 13.4146 10.3139 12.3291 10.5171 11.9993C10.5663 11.9188 10.6491 11.861 10.664 11.7617C10.6843 11.625 10.6523 11.4835 10.5929 11.36C10.4835 11.1326 10.2951 10.9138 10.0888 10.7653C10.1255 10.7856 10.1599 10.8114 10.1927 10.8341C10.4077 10.9826 10.6062 11.2084 10.7195 11.4444C10.7789 11.5679 10.8117 11.7094 10.7906 11.8461C10.7757 11.9454 10.6937 12.0032 10.6437 12.0837C10.4647 12.3752 10.4077 13.2559 9.95127 13.2739C10.0427 13.7756 9.95517 14.4196 10.0122 14.7861C10.0122 14.7861 9.96612 16.0537 11.1735 16.7117C10.7586 17.7237 10.1498 17.9089 10.1498 17.9089C9.90281 18.0465 9.97862 18.2551 9.97862 18.2551H10.6335C11.0883 17.8527 11.422 17.4627 11.6557 17.1454C11.5197 17.9324 11.093 17.9082 11.093 17.9082C10.8461 18.0457 10.9219 18.2544 10.9219 18.2544H11.5768C12.0675 17.8199 12.3083 17.4002 12.4239 17.0704C13.0249 17.1321 13.7743 17.0907 14.7113 16.8922C15.3741 16.7515 16.0743 16.6593 16.6424 16.6007C17.2246 17.7894 18.5633 17.5073 18.5633 17.5073C19.1932 17.6557 19.1932 17.9082 19.1932 17.9082C18.9463 18.0457 19.0221 18.2544 19.0221 18.2544H19.677C19.752 17.9269 19.702 17.6925 19.6176 17.5291C19.7254 17.5205 19.7903 17.5065 19.7903 17.5065C20.4202 17.655 20.4202 17.9074 20.4202 17.9074C20.1732 18.0449 20.249 18.2536 20.249 18.2536H20.9039C21.0844 17.4705 20.5429 17.215 20.5429 17.215L20.5436 17.2158Z"
		fill="currentColor" />
</svg>
