<svg width="40" height="40" viewBox="0 0 40 40" fill="none" xmlns="http://www.w3.org/2000/svg">
	<path
		d="M31.0445 19.8353L30.3546 19.8632C30.3546 19.8632 31.3471 19.1531 31.6429 17.5198L31.1785 17.9418C31.1785 17.9418 31.404 15.4087 30.1726 13.8244V14.5568C30.1726 14.5568 29.8343 13.417 28.0827 12.7058L28.7302 13.7474C28.7302 13.7474 27.2532 12.0304 24.5503 12.6064L25.5495 12.8465C25.5495 12.8465 23.4026 13.0921 22.9025 14.6193L23.4651 14.3235C23.4651 14.3235 22.9159 15.4209 23.071 16.3788C23.071 16.3788 23.761 15.4354 25.1052 15.5694L24.4085 15.9278C24.4085 15.9278 26.3154 15.4008 27.2866 16.2315L26.801 16.3654C26.801 16.3654 28.0257 16.6334 27.7299 17.7163L27.2163 17.3434C27.2163 17.3434 27.6997 18.2086 26.8278 18.8137C25.2324 17.7353 23.1068 17.7855 23.1068 17.7855L18.9057 17.4774C17.6932 17.3892 16.837 16.6144 16.3424 15.5504C16.2631 15.3796 16.1917 15.2066 16.1202 15.0324C16.0577 14.8806 15.9952 14.7299 15.9326 14.578C15.84 14.3536 15.7641 14.1248 15.6725 13.9004C15.3979 13.2361 15.0261 12.5651 14.4579 12.1465C14.3094 11.586 14.0805 10.9195 13.7266 10.2385C13.7266 10.2385 13.4743 9.75063 13.3671 10.1704C13.289 10.4741 13.1461 10.934 13.1505 11.6686C12.5812 11.6084 11.9861 11.701 11.4982 11.9567C11.0584 12.1878 10.796 12.5763 10.4108 12.871C10.1909 13.0385 9.87272 13.0698 9.61147 13.0463C9.43061 13.0307 9.20399 13.0017 8.99522 13.0251C8.97178 13.0095 8.94609 12.9972 8.91595 12.9894C8.83891 12.967 8.74849 12.9603 8.66922 12.9615C8.62568 12.9615 8.58102 12.967 8.54195 12.9871C8.43365 13.043 8.40463 13.1825 8.39123 13.293C8.3823 13.3667 8.37895 13.4549 8.40351 13.5308C8.32313 13.8088 8.3276 14.1527 8.33988 14.3748C8.35774 14.7008 8.46491 15.0335 8.69378 15.2657C8.89697 15.4712 9.17496 15.5828 9.4496 15.671C9.8236 15.7916 10.2088 15.8798 10.566 16.0439C11.1387 16.3051 11.5206 16.8053 11.6702 17.4115C11.822 18.0322 11.7416 20.542 11.7103 21.1738L12.0285 20.7697C12.0285 20.7697 11.9414 21.6528 12.0721 22.2746L12.1592 22.0067C13.6753 27.274 11.793 29.8976 11.793 29.8976C10.9411 30.276 11.1622 31.0374 11.1622 31.0374H12.6247C13.5078 30.3988 13.9443 28.2229 13.9443 28.2229L14.2123 28.5668L13.98 27.5553L14.3451 28.262C14.4199 27.4414 14.0928 26.5818 14.0928 26.5818L14.6499 27.7652C14.6476 27.0395 14.0135 25.4363 14.0135 25.4363L14.3819 25.9812C15.1143 28.8202 14.4612 29.8976 14.4612 29.8976C13.6083 30.276 13.8282 31.0374 13.8282 31.0374H15.1791C16.0633 30.3988 16.5043 28.2229 16.5043 28.2229L16.7711 28.5668L16.5422 27.5553L16.9051 28.262C16.981 27.4414 16.6572 26.5818 16.6572 26.5818L17.211 27.7652C17.211 27.0395 16.5813 25.4363 16.5813 25.4363L17.211 26.3719C17.2043 26.114 17.1004 25.7612 16.9709 25.4174C17.6296 25.5178 18.5384 25.5491 19.6269 25.3124L18.8599 25.1416L20.2264 25.0021C21.0224 27.8891 23.6884 27.9271 23.6884 27.9271C24.8261 28.1336 25.084 30.1186 25.084 30.1186C24.6363 30.6188 24.6675 31.1011 24.6675 31.1011C24.6675 31.1011 24.6686 31.1044 24.672 31.11L26.2205 31.1011C26.8814 29.5905 26.2249 28.3457 25.746 27.7105C26.3355 27.9204 26.7898 27.9271 26.7898 27.9271C27.9275 28.1336 28.1854 30.1186 28.1854 30.1186C27.7377 30.6188 27.7689 31.1011 27.7689 31.1011C27.7689 31.1011 27.7701 31.1044 27.7734 31.11L29.3219 31.1011C30.2865 28.8961 28.4433 27.2561 28.4433 27.2561C27.616 26.7392 28.0815 26.2223 28.0815 26.2223C28.7212 25.1137 28.7279 24.3914 28.7101 24.1737L28.8563 25.3961C29.4246 24.5689 29.1142 23.0706 29.1142 23.0706C29.6825 23.8979 29.5273 24.4148 29.5273 24.4148C30.301 22.0815 28.3763 20.9193 28.3763 20.9193C28.3305 20.7608 28.2769 20.6101 28.2155 20.4672C28.69 20.5051 29.9382 20.5252 31.0445 19.8408V19.8353Z"
		fill="currentColor" />
</svg>
