<svg width="28" height="28" viewBox="0 0 28 28" fill="none" xmlns="http://www.w3.org/2000/svg">
	<path
		d="M24.1235 12.1458C23.8819 11.0571 23.3254 10.1263 22.6606 9.66124C21.825 9.07652 20.7943 8.83027 19.7774 8.75023C18.7604 8.67018 17.7388 8.74413 16.7188 8.73879C14.5918 8.72736 12.0448 8.97207 10.1031 7.9063C9.44137 7.54342 8.85588 7.09058 8.50291 6.41819C8.09581 5.64287 7.44476 4.9316 6.59016 4.73643C6.27607 4.66477 5.95131 4.66554 5.6296 4.66706C5.26595 4.66858 4.90079 4.67087 4.54096 4.72424C4.32521 4.75626 4.10946 4.8081 3.91888 4.9133C3.60784 5.08559 3.38828 5.38672 3.22208 5.70157C3.01472 6.09342 2.4704 6.04158 2.03815 6.0675C2.02976 6.06598 2.02214 6.06445 2.01375 6.06293C1.87577 6.04082 1.71644 6.04845 1.57845 6.06598C1.50298 6.07589 1.42674 6.09495 1.36347 6.1384C1.1866 6.25809 1.16602 6.50738 1.16602 6.70102C1.16602 6.89466 1.19346 7.14395 1.3627 7.26974C1.32763 7.88572 1.35889 8.48645 1.5876 9.07575C1.67832 9.31056 1.79877 9.5507 2.01452 9.6803C2.21883 9.8038 2.47117 9.80533 2.70902 9.82667C3.17863 9.86784 3.66349 10.0127 3.98749 10.355C4.2688 10.6531 4.39458 11.0602 4.53714 11.4444C5.03496 12.7877 5.66314 14.5319 6.74187 15.4742C6.87376 15.5893 7.00793 15.6998 7.14592 15.8066C8.69502 19.6222 6.77923 21.7933 6.77923 21.7933C5.85297 22.1943 6.19298 22.9658 6.19298 22.9658H8.41524C9.04266 22.1227 9.542 20.9784 9.93004 19.8227C10.0779 20.9906 9.99179 21.7933 9.99179 21.7933C9.06553 22.1943 9.40554 22.9658 9.40554 22.9658H11.6278C12.7523 21.4541 12.6623 18.9864 12.4016 17.2223C13.1152 17.1209 13.7395 16.9333 14.2129 16.7565C14.8998 19.8669 17.7914 19.8936 17.7914 19.8936C19.1225 20.1787 19.4 21.7933 19.4 21.7933C18.4737 22.1943 18.7078 22.9658 18.7078 22.9658H21.2571C21.4591 21.6317 21.2068 20.5934 20.9064 19.8913C20.9415 19.8936 20.9605 19.8936 20.9605 19.8936C22.2916 20.1787 22.5691 21.7933 22.5691 21.7933C21.6428 22.1943 21.8769 22.9658 21.8769 22.9658H24.4262C24.8272 20.3113 23.4328 18.8301 23.4328 18.8301C22.2108 17.5013 23.2476 16.2373 23.2476 16.2373C23.2743 16.2038 23.301 16.171 23.3261 16.1374C23.8628 17.993 25.2366 18.7089 25.2366 18.7089V18.253C26.0729 19.4948 27.9993 19.3935 27.9993 19.3935C26.281 17.5013 24.7532 13.7985 24.1235 12.1427V12.1458ZM7.8145 6.74981C7.65593 7.21027 7.47907 7.65701 7.23207 8.08012C7.05063 8.39116 6.82954 8.7548 6.50325 8.94539C6.12589 9.16647 5.84306 8.88059 5.68449 8.55278C5.59072 8.3599 5.51982 8.14949 5.46264 7.9368C5.5061 8.06868 5.55565 8.19752 5.61511 8.31874C5.77368 8.64579 6.05652 8.93167 6.43388 8.71135C6.75941 8.52076 6.98125 8.15712 7.16269 7.84608C7.40893 7.42297 7.58656 6.97623 7.74513 6.51577C7.80459 6.34271 7.82899 6.18338 7.81222 6.03701C7.9159 6.24285 7.90827 6.47994 7.81527 6.74981H7.8145Z"
		fill="currentColor" />
</svg>
