<svg width="40" height="40" viewBox="0 0 40 40" fill="none" xmlns="http://www.w3.org/2000/svg">
	<path d="M9.95848 30.4285L0.393267 39.9992L0.222656 37.8803L8.81924 29.2838L9.95848 30.4285Z" fill="#31AA7A" />
	<path d="M33.3648 3.0254L24.1028 12.2874L26.9631 15.1478L36.2252 5.88574L33.3648 3.0254Z" fill="#31AA7A" />
	<path d="M29.5956 17.7653L14.6589 32.702L8.6545 30.5941L6.54663 24.5897L21.4833 9.65302L29.5956 17.7653Z"
		fill="#9EEACC" />
	<path d="M14.1747 30.5883L18.5611 26.202L13.0465 20.6874L8.66016 25.0738L10.0966 29.1519L14.1747 30.5883Z"
		fill="white" />
	<path d="M14.0189 19.7131L12.8748 20.8572L18.3892 26.3717L19.5333 25.2275L14.0189 19.7131Z" fill="#31AA7A" />
	<path d="M31.3508 0.00608417L30.3201 1.0379L38.2203 8.92986L39.251 7.89804L31.3508 0.00608417Z" fill="#31AA7A" />
	<path d="M8.09733 29.0488L5.67285 31.4732L7.76654 33.5669L10.191 31.1424L8.09733 29.0488Z" fill="#31AA7A" />
	<path d="M24.6141 11.7717L15.3481 21.0376L18.2085 23.8979L27.4744 14.632L24.6141 11.7717Z" fill="#31AA7A" />
	<path d="M19.4238 6.58552L18.3931 7.61734L31.6393 20.8497L32.67 19.8179L19.4238 6.58552Z" fill="#31AA7A" />
</svg>
